S5_12_1.mot
version=1
nRows=9
nColumns=39
inDegrees=no
endheader
time	sternoclavicular_r2	sternoclavicular_r3	unrotscap_r3	unrotscap_r2	acromioclavicular_r2	acromioclavicular_r3	acromioclavicular_r1	unrothum_r1	unrothum_r3	unrothum_r2	elv_angle	shoulder_elv	shoulder1_r2	shoulder_rot	elbow_flexion	pro_sup	deviation	flexion	cmc_abduction	cmc_flexion	mp_flexion	ip_flexion	mcp2_flexion	mcp2_abduction	pm2_flexion	md2_flexion	mcp3_flexion	mcp3_abduction	pm3_flexion	md3_flexion	mcp4_flexion	mcp4_abduction	pm4_flexion	md4_flexion	mcp5_flexion	mcp5_abduction	pm5_flexion	md5_flexion
3.16500000	-0.15542064	0.13685932	0.16231092	0.09137075	0.01923657	0.35536419	0.02980856	0.63702594	0.04527599	-0.08363890	0.02800645	-0.28055321	0.10133971	0.10133971	2.47522028	1.28838038	0.00000000	0.00000000	0.00000000	0.00000000	0.00000000	0.00000000	0.00000000	0.00000000	0.00000000	0.00000000	0.00000000	0.00000000	0.00000000	0.00000000	0.00000000	0.00000000	0.00000000	0.00000000	0.00000000	0.00000000	0.00000000	0.00000000
3.17000000	-0.15524197	0.13676244	0.16177277	0.09175869	0.01982613	0.35441542	0.02989009	0.63560050	0.04486387	-0.08291881	0.02836702	-0.28010867	0.10126582	0.10126582	2.47497311	1.28838305	0.00000000	0.00000000	0.00000000	0.00000000	0.00000000	0.00000000	0.00000000	0.00000000	0.00000000	0.00000000	0.00000000	0.00000000	0.00000000	0.00000000	0.00000000	0.00000000	0.00000000	0.00000000	0.00000000	0.00000000	0.00000000	0.00000000
3.17500000	-0.15506080	0.13664941	0.16124869	0.09216258	0.02043546	0.35345141	0.02994852	0.63412668	0.04443514	-0.08216922	0.02874337	-0.27965345	0.10119255	0.10119255	2.47467505	1.28838589	0.00000000	0.00000000	0.00000000	0.00000000	0.00000000	0.00000000	0.00000000	0.00000000	0.00000000	0.00000000	0.00000000	0.00000000	0.00000000	0.00000000	0.00000000	0.00000000	0.00000000	0.00000000	0.00000000	0.00000000	0.00000000	0.00000000
3.18000000	-0.15487745	0.13651982	0.16074035	0.09258266	0.02106467	0.35247276	0.02998238	0.63260409	0.04398958	-0.08138975	0.02913572	-0.27918770	0.10111999	0.10111999	2.47432346	1.28838892	0.00000000	0.00000000	0.00000000	0.00000000	0.00000000	0.00000000	0.00000000	0.00000000	0.00000000	0.00000000	0.00000000	0.00000000	0.00000000	0.00000000	0.00000000	0.00000000	0.00000000	0.00000000	0.00000000	0.00000000	0.00000000	0.00000000
3.18500000	-0.15469224	0.13637324	0.16024936	0.09301916	0.02171391	0.35148006	0.02999023	0.63103228	0.04352695	-0.08057999	0.02954426	-0.27871155	0.10104824	0.10104824	2.47391565	1.28839213	0.00000000	0.00000000	0.00000000	0.00000000	0.00000000	0.00000000	0.00000000	0.00000000	0.00000000	0.00000000	0.00000000	0.00000000	0.00000000	0.00000000	0.00000000	0.00000000	0.00000000	0.00000000	0.00000000	0.00000000	0.00000000	0.00000000
3.19000000	-0.15450549	0.13620926	0.15977731	0.09347229	0.02238328	0.35047384	0.02997067	0.62941078	0.04304707	-0.07973955	0.02996920	-0.27822510	0.10097740	0.10097740	2.47344891	1.28839554	0.00000000	0.00000000	0.00000000	0.00000000	0.00000000	0.00000000	0.00000000	0.00000000	0.00000000	0.00000000	0.00000000	0.00000000	0.00000000	0.00000000	0.00000000	0.00000000	0.00000000	0.00000000	0.00000000	0.00000000	0.00000000	0.00000000
3.19500000	-0.15431749	0.13602747	0.15932571	0.09394223	0.02307288	0.34945463	0.02992235	0.62773912	0.04254979	-0.07886805	0.03041076	-0.27772841	0.10090754	0.10090754	2.47292045	1.28839915	0.00000000	0.00000000	0.00000000	0.00000000	0.00000000	0.00000000	0.00000000	0.00000000	0.00000000	0.00000000	0.00000000	0.00000000	0.00000000	0.00000000	0.00000000	0.00000000	0.00000000	0.00000000	0.00000000	0.00000000	0.00000000	0.00000000
3.20000000	-0.15412854	0.13582748	0.15889605	0.09442918	0.02378280	0.34842292	0.02984395	0.62601676	0.04203499	-0.07796513	0.03086912	-0.27722151	0.10083877	0.10083877	2.47232744	1.28840296	0.00000000	0.00000000	0.00000000	0.00000000	0.00000000	0.00000000	0.00000000	0.00000000	0.00000000	0.00000000	0.00000000	0.00000000	0.00000000	0.00000000	0.00000000	0.00000000	0.00000000	0.00000000	0.00000000	0.00000000	0.00000000	0.00000000
3.20500000	-0.15393891	0.13560890	0.15848973	0.09493329	0.02451311	0.34737919	0.02973421	0.62424318	0.04150259	-0.07703041	0.03134448	-0.27670439	0.10077117	0.10077117	2.47166704	1.28840699	0.00000000	0.00000000	0.00000000	0.00000000	0.00000000	0.00000000	0.00000000	0.00000000	0.00000000	0.00000000	0.00000000	0.00000000	0.00000000	0.00000000	0.00000000	0.00000000	0.00000000	0.00000000	0.00000000	0.00000000	0.00000000	0.00000000
